<svg width="512" height="512" viewBox="0 0 512 512" fill="none" xmlns="http://www.w3.org/2000/svg" xmlns:xlink="http://www.w3.org/1999/xlink" class=""><rect id="r4" width="512" height="512" x="0" y="0" rx="128" fill="url(#r5)" stroke="#FFFFFF" stroke-width="0" stroke-opacity="100%" paint-order="stroke"></rect><clipPath id="clip"><use xlink:href="#r4"></use></clipPath><defs><linearGradient id="r5" gradientUnits="userSpaceOnUse" gradientTransform="rotate(90)" style="transform-origin: center center;"><stop stop-color="#F5AF19"></stop><stop offset="1" stop-color="#F12711"></stop></linearGradient><radialGradient id="r6" cx="0" cy="0" r="1" gradientUnits="userSpaceOnUse" gradientTransform="translate(256) rotate(90) scale(512)"><stop stop-color="white"></stop><stop offset="1" stop-color="white" stop-opacity="0"></stop></radialGradient></defs><svg t="1703934840914" class="icon" viewBox="0 0 1024 1024" version="1.1" xmlns="http://www.w3.org/2000/svg" p-id="8251" xmlns:xlink="http://www.w3.org/1999/xlink" width="352" height="352" x="80" y="80" alignment-baseline="middle" style="color: rgb(255, 255, 255);"><path d="M975.81056 800.02048l0.26624-0.1536L635.63776 210.2272l-0.14336 0.08192c-7.49568-15.38048-23.1424-26.08128-41.41056-26.08128-18.74944 0-34.816 11.22304-42.05568 27.27936L325.46816 603.904l-55.47008-96.07168-0.07168 0.04096c-3.95264-8.11008-12.19584-13.76256-21.84192-13.76256-9.87136 0-18.33984 5.91872-22.15936 14.35648L64.21504 788.57216 63.488 788.57216l0 1.24928-15.65696 27.11552c-1.81248 2.37568-2.9184 5.30432-2.9184 8.51968 0 7.82336 6.33856 14.16192 14.15168 14.16192 1.55648 0 3.0208-0.3072 4.42368-0.77824l0 0.93184 174.08 0 204.8 0 512 0 0-0.512c13.81376-1.10592 24.70912-12.53376 24.70912-26.63424C979.08736 808.0384 977.82784 803.79904 975.81056 800.02048z" fill="#ffffff" p-id="8252"></path></svg></svg>